<?xml version="1.0" encoding="UTF-8" standalone="no"?>
<!-- Created with Inkscape (http://www.inkscape.org/) -->

<svg
   width="2.97243mm"
   height="6.8130202mm"
   viewBox="0 0 2.97243 6.8130202"
   version="1.1"
   id="svg1"
   inkscape:version="1.4 (86a8ad7, 2024-10-11)"
   sodipodi:docname="chart.svg"
   xmlns:inkscape="http://www.inkscape.org/namespaces/inkscape"
   xmlns:sodipodi="http://sodipodi.sourceforge.net/DTD/sodipodi-0.dtd"
   xmlns="http://www.w3.org/2000/svg"
   xmlns:svg="http://www.w3.org/2000/svg">
  <sodipodi:namedview
     id="namedview1"
     pagecolor="#ffffff"
     bordercolor="#000000"
     borderopacity="0.25"
     inkscape:showpageshadow="2"
     inkscape:pageopacity="0.0"
     inkscape:pagecheckerboard="0"
     inkscape:deskcolor="#d1d1d1"
     inkscape:document-units="mm"
     inkscape:zoom="16.428527"
     inkscape:cx="0.27391379"
     inkscape:cy="19.569618"
     inkscape:window-width="1920"
     inkscape:window-height="1017"
     inkscape:window-x="-8"
     inkscape:window-y="-8"
     inkscape:window-maximized="1"
     inkscape:current-layer="layer1" />
  <defs
     id="defs1" />
  <g
     inkscape:label="Livello 1"
     inkscape:groupmode="layer"
     id="layer1"
     transform="translate(-128.757,-106.36044)">
    <path
       style="fill:#000000;fill-opacity:1;fill-rule:nonzero;stroke:none;stroke-width:0.352778"
       d="m 131.72943,110.09354 c 0,0.24805 -0.13643,0.43719 -0.40928,0.56638 -0.0744,0.0331 -0.17156,0.0661 -0.28939,0.0992 -0.11885,0.0331 -0.26355,0.0651 -0.43408,0.0951 v 2.31924 h -0.57464 v -2.31097 c -0.19637,-0.0186 -0.37,-0.062 -0.5209,-0.12816 -0.14883,-0.0682 -0.27698,-0.15503 -0.38447,-0.26045 -0.23978,-0.23151 -0.35967,-0.53847 -0.35967,-0.9219 0,-0.48783 0.25011,-0.73174 0.75241,-0.73174 0.14573,0 0.31626,0.14676 0.51263,0.43821 v -2.89801 h 0.57464 v 4.28707 c 0.37207,-0.0796 0.58395,-0.1912 0.63665,-0.33486 0.0165,-0.0579 0.03,-0.11265 0.0413,-0.16536 0.0134,-0.0548 0.0207,-0.10542 0.0207,-0.15297 0,-0.0992 -0.031,-0.21083 -0.091,-0.33486 l 0.0661,-0.13229 c 0.12609,0.0331 0.23358,0.10542 0.32246,0.21497 0.091,0.11059 0.13643,0.22738 0.13643,0.3514 z m -1.70739,0.53744 v -0.93845 c 0,-0.12092 -0.0413,-0.21187 -0.12403,-0.27285 -0.0971,-0.0713 -0.22117,-0.10748 -0.37206,-0.10748 -0.23772,0 -0.35554,0.18086 -0.35554,0.54156 0,0.20671 0.0951,0.38344 0.28526,0.52917 0.17053,0.13849 0.35966,0.22118 0.56637,0.24805 z"
       id="path360" />
  </g>
</svg>
