<?xml version="1.0" encoding="UTF-8" standalone="no"?>
<!-- Created with Inkscape (http://www.inkscape.org/) -->

<svg
   width="2.8814909mm"
   height="6.9618402mm"
   viewBox="0 0 2.8814909 6.9618402"
   version="1.1"
   id="svg1"
   inkscape:version="1.4 (86a8ad7, 2024-10-11)"
   sodipodi:docname="chart.svg"
   xmlns:inkscape="http://www.inkscape.org/namespaces/inkscape"
   xmlns:sodipodi="http://sodipodi.sourceforge.net/DTD/sodipodi-0.dtd"
   xmlns="http://www.w3.org/2000/svg"
   xmlns:svg="http://www.w3.org/2000/svg">
  <sodipodi:namedview
     id="namedview1"
     pagecolor="#ffffff"
     bordercolor="#000000"
     borderopacity="0.25"
     inkscape:showpageshadow="2"
     inkscape:pageopacity="0.0"
     inkscape:pagecheckerboard="0"
     inkscape:deskcolor="#d1d1d1"
     inkscape:document-units="mm"
     inkscape:zoom="16.428527"
     inkscape:cx="4.7782738"
     inkscape:cy="19.387009"
     inkscape:window-width="1920"
     inkscape:window-height="1017"
     inkscape:window-x="-8"
     inkscape:window-y="-8"
     inkscape:window-maximized="1"
     inkscape:current-layer="layer1" />
  <defs
     id="defs1" />
  <g
     inkscape:label="Livello 1"
     inkscape:groupmode="layer"
     id="layer1"
     transform="translate(-78.052087,-122.50208)">
    <path
       id="path344"
       style="fill:#000000;fill-opacity:1;fill-rule:nonzero;stroke:none;stroke-width:0.352778"
       d="m 79.457687,122.50208 c -0.300758,0 -0.45062,0.15709 -0.45062,0.47128 0,0.12196 0.09612,0.26873 0.28939,0.44236 l 0.198437,0.20257 c 0.09302,0.0889 0.158129,0.17156 0.194303,0.24804 0.03514,0.0744 0.05374,0.1478 0.05374,0.21911 0,0.21291 -0.09302,0.31833 -0.276983,0.31833 -0.181903,0 -0.272853,-0.11162 -0.272853,-0.33486 h -0.124024 c 0,0.16536 0.05064,0.29972 0.152963,0.401 0.104387,0.0992 0.248045,0.14883 0.429948,0.14883 0.294555,0 0.442351,-0.15399 0.442351,-0.46302 0,-0.12919 -0.09405,-0.27905 -0.281121,-0.45062 l -0.223242,-0.20257 c -0.155028,-0.18397 -0.23151,-0.33693 -0.23151,-0.45889 0,-0.21187 0.09508,-0.31832 0.285252,-0.31832 0.175701,0 0.264584,0.10955 0.264584,0.32659 h 0.124022 c 0,-0.15916 -0.05168,-0.29042 -0.152961,-0.39274 -0.09922,-0.10438 -0.239779,-0.15709 -0.421678,-0.15709 z m 0.194303,2.29856 c -0.107488,0 -0.197404,0.0351 -0.268718,0.10336 -0.06924,0.0692 -0.103354,0.15916 -0.103354,0.26871 0,0.10232 0.03411,0.18914 0.103354,0.26045 0.07131,0.0692 0.158129,0.10336 0.260448,0.10336 0.104387,0 0.191202,-0.0341 0.260449,-0.10336 0.06822,-0.0713 0.103354,-0.15813 0.103354,-0.26045 0,-0.10438 -0.03306,-0.19223 -0.09922,-0.26458 -0.06615,-0.0713 -0.151928,-0.10749 -0.256314,-0.10749 z m -0.326595,1.06247 c -0.06098,0.47129 -0.194304,0.92914 -0.40101,1.37253 -0.239779,0.50746 -0.531234,0.87643 -0.872298,1.10794 l 0.177767,0.23565 c 0.217041,-0.1509 0.417546,-0.36071 0.599447,-0.62839 0.07648,-0.11575 0.216008,-0.37207 0.417544,-0.76895 v 1.42627 c 0,0.0413 0.0042,0.0941 0.01242,0.1571 0.0083,0.061 0.0217,0.12609 0.04134,0.1943 0.0217,0.0661 0.05167,0.13126 0.09095,0.1943 0.03824,0.061 0.08682,0.11473 0.144692,0.16124 0.101286,0.0827 0.206706,0.12817 0.314194,0.13642 0.109555,0.008 0.227376,0.0124 0.351399,0.0124 0.124026,0 0.228409,-0.0248 0.314194,-0.0744 0.08475,-0.0496 0.165365,-0.12609 0.23978,-0.23151 0.11782,-0.16536 0.177764,-0.37207 0.177764,-0.62011 v -0.0372 l -0.177764,-0.0537 c -0.01136,0.23151 -0.05685,0.40514 -0.136427,0.5209 -0.07752,0.11368 -0.198437,0.16949 -0.363802,0.16949 -0.07235,0 -0.128157,-0.0228 -0.169499,-0.0703 -0.04134,-0.0465 -0.07442,-0.10335 -0.09922,-0.1695 -0.02272,-0.0682 -0.03927,-0.13849 -0.04961,-0.21083 -0.0083,-0.0713 -0.01242,-0.13333 -0.01242,-0.18604 l -0.03305,-2.63756 z" />
  </g>
</svg>
