<?xml version="1.0" encoding="UTF-8" standalone="no"?>
<!-- Created with Inkscape (http://www.inkscape.org/) -->

<svg
   width="3.07986mm"
   height="5.2381902mm"
   viewBox="0 0 3.07986 5.2381902"
   version="1.1"
   id="svg1"
   inkscape:version="1.4 (86a8ad7, 2024-10-11)"
   sodipodi:docname="chart.svg"
   xmlns:inkscape="http://www.inkscape.org/namespaces/inkscape"
   xmlns:sodipodi="http://sodipodi.sourceforge.net/DTD/sodipodi-0.dtd"
   xmlns="http://www.w3.org/2000/svg"
   xmlns:svg="http://www.w3.org/2000/svg">
  <sodipodi:namedview
     id="namedview1"
     pagecolor="#ffffff"
     bordercolor="#000000"
     borderopacity="0.25"
     inkscape:showpageshadow="2"
     inkscape:pageopacity="0.0"
     inkscape:pagecheckerboard="0"
     inkscape:deskcolor="#d1d1d1"
     inkscape:document-units="mm"
     inkscape:zoom="5.8083614"
     inkscape:cx="7.1448722"
     inkscape:cy="17.474808"
     inkscape:window-width="1920"
     inkscape:window-height="1017"
     inkscape:window-x="-8"
     inkscape:window-y="-8"
     inkscape:window-maximized="1"
     inkscape:current-layer="layer1" />
  <defs
     id="defs1" />
  <g
     inkscape:label="Livello 1"
     inkscape:groupmode="layer"
     id="layer1"
     transform="translate(-121.97316,-144.99141)">
    <path
       style="fill:#000000;fill-opacity:1;fill-rule:nonzero;stroke:none;stroke-width:0.352778"
       d="m 125.05281,149.63842 c 0,0.39481 -0.19017,0.59118 -0.57051,0.59118 -0.20464,0 -0.35967,-0.0537 -0.46716,-0.16123 -0.10542,-0.10955 -0.17983,-0.24391 -0.22324,-0.40101 -0.0413,-0.15916 -0.0651,-0.32866 -0.0703,-0.5085 -0.006,-0.1819 -0.008,-0.34519 -0.008,-0.49196 v -0.47955 c 0,-0.0879 -0.002,-0.1943 -0.004,-0.31833 -0.003,-0.12402 -0.0207,-0.24081 -0.0537,-0.3514 -0.031,-0.11265 -0.0806,-0.20877 -0.14883,-0.28939 -0.0692,-0.0796 -0.16847,-0.11989 -0.29766,-0.11989 -0.0362,0 -0.0723,0 -0.10748,0 -0.0331,0 -0.0682,0.003 -0.10336,0.008 0,0.0889 0.001,0.17363 0.004,0.25631 0.002,0.0827 0.004,0.16847 0.004,0.25632 0,0.0827 -0.004,0.1881 -0.0124,0.31419 -0.008,0.12712 -0.0279,0.25012 -0.0579,0.36794 -0.031,0.11885 -0.0806,0.22117 -0.14883,0.30592 -0.0661,0.0858 -0.15916,0.12816 -0.27698,0.12816 -0.0641,0 -0.11162,-0.0165 -0.1447,-0.0496 -0.0331,-0.0331 -0.0599,-0.0754 -0.0786,-0.12816 -0.0165,-0.0517 -0.0269,-0.10542 -0.0289,-0.16123 -0.003,-0.0579 -0.004,-0.10749 -0.004,-0.14882 0,-0.11783 0.004,-0.24392 0.0124,-0.37621 0.0103,-0.13229 0.0341,-0.25735 0.0703,-0.37621 0.0383,-0.11782 0.093,-0.22737 0.16537,-0.32659 0.0713,-0.0992 0.1695,-0.1757 0.29352,-0.23151 v -0.3266 h -0.82269 v -0.26458 h 0.82269 c 0,-0.14573 0.002,-0.29869 0.008,-0.45889 0.005,-0.15916 0.0289,-0.30695 0.0703,-0.44235 0.0413,-0.13436 0.11162,-0.24494 0.21084,-0.33073 0.10129,-0.0878 0.25218,-0.13229 0.45062,-0.13229 0.0827,0 0.16743,0.0103 0.25631,0.0289 0.0909,0.0165 0.17467,0.0455 0.25218,0.0868 0.0796,0.0413 0.14263,0.0971 0.19017,0.16536 0.0496,0.0692 0.0744,0.15296 0.0744,0.25218 0,0.0775 -0.0145,0.15297 -0.0413,0.22738 -0.0279,0.0724 -0.0909,0.10749 -0.19017,0.10749 -0.0661,0 -0.11886,-0.0341 -0.1571,-0.10336 -0.0362,-0.0713 -0.0724,-0.14986 -0.10749,-0.23564 -0.0362,-0.0847 -0.0744,-0.1633 -0.11575,-0.23565 -0.0413,-0.0713 -0.0982,-0.10748 -0.1695,-0.10748 -0.15193,0 -0.26355,0.0434 -0.33486,0.12816 -0.0724,0.0858 -0.12299,0.18913 -0.15296,0.31005 -0.0279,0.12196 -0.0403,0.25012 -0.0372,0.38448 0.002,0.13229 0.004,0.25114 0.004,0.35553 h 1.16582 v 0.26458 h -1.16582 l -0.008,0.28526 c 0.0465,-0.005 0.092,-0.009 0.13643,-0.0124 0.0434,-0.002 0.0889,-0.004 0.13642,-0.004 0.17881,0 0.33073,0.0279 0.45476,0.0827 0.12609,0.0558 0.24908,0.15296 0.36793,0.29352 0.10749,0.13229 0.16743,0.26768 0.1819,0.40514 0.0135,0.1385 0.0207,0.28939 0.0207,0.45476 v 0.56637 c 0,0.0362 0,0.12609 0,0.26872 0.002,0.14056 0.0103,0.29145 0.0248,0.45062 0.0134,0.15709 0.0372,0.29972 0.0703,0.42581 0.0331,0.12712 0.0806,0.19017 0.1447,0.19017 0.11782,0 0.20257,-0.0372 0.25218,-0.11162 0.0496,-0.0765 0.0785,-0.1695 0.0868,-0.27699 l 0.17776,-0.0165 z m -2.2655,-1.87688 v -0.55398 c -0.0724,0.0527 -0.12816,0.12196 -0.1695,0.20671 -0.0413,0.0858 -0.0744,0.17777 -0.0992,0.27699 -0.0227,0.0971 -0.0362,0.19637 -0.0413,0.29765 -0.006,0.10232 -0.008,0.19224 -0.008,0.26872 0,0.0114 0,0.031 0,0.0579 0,0.0279 0.002,0.0568 0.008,0.0868 0.005,0.0279 0.0124,0.0538 0.0207,0.0786 0.008,0.0227 0.0186,0.0331 0.0331,0.0331 0.0682,0 0.11988,-0.031 0.15296,-0.0951 0.0331,-0.0661 0.0579,-0.14056 0.0744,-0.22324 0.0165,-0.0827 0.0248,-0.16537 0.0248,-0.24805 0.002,-0.0827 0.004,-0.14469 0.004,-0.18603 z"
       id="path345" />
  </g>
</svg>
