<?xml version="1.0" encoding="UTF-8" standalone="no"?>
<!-- Created with Inkscape (http://www.inkscape.org/) -->

<svg
   width="2.9807069mm"
   height="6.9577379mm"
   viewBox="0 0 2.9807069 6.9577379"
   version="1.1"
   id="svg1"
   inkscape:version="1.4 (86a8ad7, 2024-10-11)"
   sodipodi:docname="chart.svg"
   xmlns:inkscape="http://www.inkscape.org/namespaces/inkscape"
   xmlns:sodipodi="http://sodipodi.sourceforge.net/DTD/sodipodi-0.dtd"
   xmlns="http://www.w3.org/2000/svg"
   xmlns:svg="http://www.w3.org/2000/svg">
  <sodipodi:namedview
     id="namedview1"
     pagecolor="#ffffff"
     bordercolor="#000000"
     borderopacity="0.25"
     inkscape:showpageshadow="2"
     inkscape:pageopacity="0.0"
     inkscape:pagecheckerboard="0"
     inkscape:deskcolor="#d1d1d1"
     inkscape:document-units="mm"
     inkscape:zoom="5.8083614"
     inkscape:cx="12.998503"
     inkscape:cy="24.533597"
     inkscape:window-width="1920"
     inkscape:window-height="1017"
     inkscape:window-x="-8"
     inkscape:window-y="-8"
     inkscape:window-maximized="1"
     inkscape:current-layer="layer1" />
  <defs
     id="defs1" />
  <g
     inkscape:label="Livello 1"
     inkscape:groupmode="layer"
     id="layer1"
     transform="translate(-62.706245,-96.837492)">
    <path
       id="path303"
       style="fill:#000000;fill-opacity:1;fill-rule:nonzero;stroke:none;stroke-width:0.352778"
       d="m 64.111849,96.837492 c -0.259416,0 -0.388607,0.139531 -0.388607,0.417548 0,0.09922 0.08268,0.22944 0.248047,0.388606 l 0.177767,0.169499 c 0.145727,0.146763 0.219108,0.284219 0.219108,0.41341 0,0.185 -0.08268,0.276987 -0.248047,0.276987 -0.157096,0 -0.235645,-0.09508 -0.235645,-0.285253 h -0.107487 c 0,0.140561 0.04548,0.256311 0.136426,0.347264 0.09095,0.08888 0.212907,0.132292 0.367936,0.132292 0.258383,0 0.388607,-0.136427 0.388607,-0.409279 0,-0.05788 -0.02274,-0.117821 -0.06615,-0.181899 -0.04444,-0.06615 -0.10542,-0.13746 -0.181901,-0.214976 L 64.2276,97.713926 c -0.135392,-0.165364 -0.202572,-0.297656 -0.202572,-0.396875 0,-0.190168 0.08268,-0.285256 0.248047,-0.285256 0.157096,0 0.235645,0.09819 0.235645,0.293522 h 0.107487 c 0,-0.145726 -0.04548,-0.262516 -0.136426,-0.351399 -0.09095,-0.09095 -0.213941,-0.136426 -0.367936,-0.136426 z m -0.02481,2.071194 c -0.124023,0.868165 -0.387573,1.528594 -0.789616,1.980244 -0.239778,0.26768 -0.437182,0.45682 -0.591178,0.56637 l 0.08682,0.22324 c 0.454753,-0.29972 0.876433,-0.83612 1.265039,-1.60817 0.04134,0.11059 0.08682,0.22737 0.136426,0.3514 0.05168,0.12402 0.116789,0.26045 0.194304,0.40928 0.162264,0.30076 0.307991,0.5333 0.438216,0.69866 0.183968,0.24805 0.276985,0.54054 0.276985,0.87644 0,0.34726 -0.103353,0.63562 -0.310058,0.86403 -0.218075,0.23151 -0.489893,0.34726 -0.814421,0.34726 -0.06615,0 -0.136426,-0.0124 -0.21084,-0.0372 -0.07235,-0.0269 -0.142627,-0.062 -0.210839,-0.10335 -0.06615,-0.0413 -0.128158,-0.0878 -0.186036,-0.14056 -0.05581,-0.0548 -0.103352,-0.11162 -0.144694,-0.1695 0.124024,0.0227 0.235645,-0.008 0.334864,-0.091 0.101285,-0.0827 0.152962,-0.18293 0.152962,-0.30179 0,-0.0413 -0.01137,-0.0868 -0.03307,-0.13642 -0.01964,-0.0496 -0.04444,-0.0951 -0.07441,-0.13643 -0.03101,-0.0413 -0.06615,-0.0744 -0.107487,-0.0992 -0.04134,-0.0269 -0.08268,-0.0413 -0.124024,-0.0413 -0.127124,0 -0.230476,0.0517 -0.310058,0.15296 -0.08062,0.0992 -0.119889,0.21394 -0.119889,0.34313 0,0.22945 0.113688,0.44132 0.343131,0.63666 0.223242,0.20154 0.452686,0.30179 0.690397,0.30179 0.476457,0 0.880567,-0.1571 1.211296,-0.47129 0.330729,-0.31936 0.496093,-0.72347 0.496093,-1.2113 0,-0.39377 -0.103352,-0.7245 -0.310058,-0.99218 -0.808219,-1.0356 -1.181323,-1.754939 -1.120345,-2.158012 -0.07235,0.01136 -0.128158,-0.0062 -0.169499,-0.05374 z" />
  </g>
</svg>
