<?xml version="1.0" encoding="UTF-8" standalone="no"?>
<!-- Created with Inkscape (http://www.inkscape.org/) -->

<svg
   width="2.0050471mm"
   height="5.2379298mm"
   viewBox="0 0 2.0050471 5.2379298"
   version="1.1"
   id="svg1"
   inkscape:version="1.4 (86a8ad7, 2024-10-11)"
   sodipodi:docname="chart.svg"
   xmlns:inkscape="http://www.inkscape.org/namespaces/inkscape"
   xmlns:sodipodi="http://sodipodi.sourceforge.net/DTD/sodipodi-0.dtd"
   xmlns="http://www.w3.org/2000/svg"
   xmlns:svg="http://www.w3.org/2000/svg">
  <sodipodi:namedview
     id="namedview1"
     pagecolor="#ffffff"
     bordercolor="#000000"
     borderopacity="0.25"
     inkscape:showpageshadow="2"
     inkscape:pageopacity="0.0"
     inkscape:pagecheckerboard="0"
     inkscape:deskcolor="#d1d1d1"
     inkscape:document-units="mm"
     inkscape:zoom="8.2142634"
     inkscape:cx="3.834793"
     inkscape:cy="10.165245"
     inkscape:window-width="1920"
     inkscape:window-height="1017"
     inkscape:window-x="-8"
     inkscape:window-y="-8"
     inkscape:window-maximized="1"
     inkscape:current-layer="layer1" />
  <defs
     id="defs1" />
  <g
     inkscape:label="Livello 1"
     inkscape:groupmode="layer"
     id="layer1"
     transform="translate(-76.729163,-115.88743)">
    <path
       style="fill:#000000;fill-opacity:1;fill-rule:nonzero;stroke:none;stroke-width:0.352778"
       d="m 78.734209,118.35559 c 0,0.19844 -0.08165,0.39067 -0.243913,0.57464 -0.160197,0.1819 -0.343131,0.27285 -0.549837,0.27285 -0.165365,0 -0.307992,-0.0351 -0.425814,-0.10749 -0.06925,-0.0465 -0.1757,-0.15296 -0.318327,-0.31832 v 1.74459 c 0,0.13023 0.05064,0.22945 0.152962,0.29766 0.104387,0.0661 0.219109,0.0992 0.343132,0.0992 0.104386,0 0.236678,-0.0434 0.396875,-0.13229 0.153996,-0.093 0.233577,-0.19017 0.239779,-0.28939 l 0.107486,0.033 c 0.0052,0.14367 -0.07751,0.27699 -0.248046,0.40101 -0.176734,0.12919 -0.3514,0.19431 -0.525033,0.19431 -0.259416,0 -0.479557,-0.062 -0.661458,-0.18604 -0.181901,-0.12402 -0.272852,-0.29559 -0.272852,-0.51676 v -3.40651 c 0,-0.21188 0.02584,-0.38551 0.07855,-0.5209 0.06615,-0.1509 0.182934,-0.29146 0.351399,-0.42168 0.101286,-0.0713 0.305925,-0.13333 0.611849,-0.18604 v 0.11989 c -0.135392,0.0196 -0.241845,0.061 -0.318327,0.12403 -0.171565,0.13849 -0.256315,0.39584 -0.256315,0.77308 v 0.52089 c 0.124024,-0.11265 0.273885,-0.1695 0.450619,-0.1695 0.101285,0 0.195337,0.008 0.281119,0.0248 0.08475,0.0145 0.159164,0.0331 0.223242,0.0579 0.388607,0.17157 0.582911,0.51057 0.582911,1.017 z m -0.219108,-0.25632 c -0.0062,-0.39067 -0.181902,-0.58704 -0.529167,-0.58704 -0.206706,0 -0.398942,0.0806 -0.574642,0.23978 -0.04961,0.0475 -0.09819,0.12195 -0.144694,0.22324 -0.04754,0.0992 -0.07028,0.185 -0.07028,0.25631 v 0.33487 c 0,0.10542 0.06408,0.1881 0.194303,0.24804 0.09922,0.0475 0.20774,0.0703 0.326596,0.0703 0.183968,0 0.364835,-0.0879 0.541569,-0.26458 0.170532,-0.1757 0.256315,-0.34933 0.256315,-0.5209 z"
       id="path329" />
  </g>
</svg>
