<?xml version="1.0" encoding="UTF-8" standalone="no"?>
<!-- Created with Inkscape (http://www.inkscape.org/) -->

<svg
   width="2.9807mm"
   height="4.8866501mm"
   viewBox="0 0 2.9807 4.8866501"
   version="1.1"
   id="svg1"
   inkscape:version="1.4 (86a8ad7, 2024-10-11)"
   sodipodi:docname="chart.svg"
   xmlns:inkscape="http://www.inkscape.org/namespaces/inkscape"
   xmlns:sodipodi="http://sodipodi.sourceforge.net/DTD/sodipodi-0.dtd"
   xmlns="http://www.w3.org/2000/svg"
   xmlns:svg="http://www.w3.org/2000/svg">
  <sodipodi:namedview
     id="namedview1"
     pagecolor="#ffffff"
     bordercolor="#000000"
     borderopacity="0.25"
     inkscape:showpageshadow="2"
     inkscape:pageopacity="0.0"
     inkscape:pagecheckerboard="0"
     inkscape:deskcolor="#d1d1d1"
     inkscape:document-units="mm"
     inkscape:zoom="8.2142634"
     inkscape:cx="7.6087163"
     inkscape:cy="17.834831"
     inkscape:window-width="1920"
     inkscape:window-height="1017"
     inkscape:window-x="-8"
     inkscape:window-y="-8"
     inkscape:window-maximized="1"
     inkscape:current-layer="layer1" />
  <defs
     id="defs1" />
  <g
     inkscape:label="Livello 1"
     inkscape:groupmode="layer"
     id="layer1"
     transform="translate(-103.7167,-146.04987)">
    <path
       style="fill:#000000;fill-opacity:1;fill-rule:nonzero;stroke:none;stroke-width:0.352778"
       d="m 106.69736,149.25393 c 0,0.48783 -0.16537,0.89194 -0.4961,1.2113 -0.33073,0.31419 -0.73484,0.47129 -1.21129,0.47129 -0.23771,0 -0.46716,-0.10026 -0.6904,-0.30179 -0.22944,-0.19534 -0.34313,-0.40722 -0.34313,-0.63666 0,-0.12919 0.0393,-0.24391 0.11989,-0.34313 0.0796,-0.10128 0.18293,-0.15296 0.31006,-0.15296 0.0413,0 0.0827,0.0145 0.12402,0.0413 0.0413,0.0248 0.0765,0.0579 0.10749,0.0992 0.03,0.0413 0.0548,0.0868 0.0744,0.13643 0.0217,0.0496 0.0331,0.0951 0.0331,0.13642 0,0.11886 -0.0517,0.21911 -0.15296,0.30179 -0.0992,0.0827 -0.21084,0.11369 -0.33486,0.0909 0.0413,0.0579 0.0889,0.11472 0.14469,0.1695 0.0579,0.0527 0.11989,0.0992 0.18604,0.14056 0.0682,0.0413 0.13849,0.0765 0.21084,0.10335 0.0744,0.0248 0.14469,0.0372 0.21084,0.0372 0.32453,0 0.59634,-0.11575 0.81442,-0.34726 0.2067,-0.22841 0.31006,-0.51677 0.31006,-0.86404 0,-0.33589 -0.093,-0.62838 -0.27699,-0.87643 -0.13022,-0.16536 -0.27595,-0.39791 -0.43821,-0.69866 -0.0775,-0.14883 -0.14263,-0.28526 -0.19431,-0.40928 -0.0496,-0.12402 -0.0951,-0.24081 -0.13642,-0.3514 -0.38861,0.77204 -0.81029,1.30845 -1.26504,1.60817 l -0.0868,-0.22324 c 0.154,-0.10956 0.3514,-0.29869 0.59118,-0.56637 0.40204,-0.45166 0.66559,-1.11208 0.78962,-1.98025 0.0413,0.0476 0.0971,0.0651 0.16949,0.0537 -0.061,0.40307 0.31213,1.12241 1.12035,2.15801 0.2067,0.26768 0.31006,0.59841 0.31006,0.99218 z"
       id="path301" />
  </g>
</svg>
