<?xml version="1.0" encoding="UTF-8" standalone="no"?>
<!-- Created with Inkscape (http://www.inkscape.org/) -->

<svg
   width="4.8659601mm"
   height="3.6011701mm"
   viewBox="0 0 4.8659601 3.6011701"
   version="1.1"
   id="svg1"
   inkscape:version="1.4 (86a8ad7, 2024-10-11)"
   sodipodi:docname="chart.svg"
   xmlns:inkscape="http://www.inkscape.org/namespaces/inkscape"
   xmlns:sodipodi="http://sodipodi.sourceforge.net/DTD/sodipodi-0.dtd"
   xmlns="http://www.w3.org/2000/svg"
   xmlns:svg="http://www.w3.org/2000/svg">
  <sodipodi:namedview
     id="namedview1"
     pagecolor="#ffffff"
     bordercolor="#000000"
     borderopacity="0.25"
     inkscape:showpageshadow="2"
     inkscape:pageopacity="0.0"
     inkscape:pagecheckerboard="0"
     inkscape:deskcolor="#d1d1d1"
     inkscape:document-units="mm"
     inkscape:zoom="5.8083614"
     inkscape:cx="-6.2840442"
     inkscape:cy="23.844935"
     inkscape:window-width="1920"
     inkscape:window-height="1017"
     inkscape:window-x="-8"
     inkscape:window-y="-8"
     inkscape:window-maximized="1"
     inkscape:current-layer="layer1" />
  <defs
     id="defs1" />
  <g
     inkscape:label="Livello 1"
     inkscape:groupmode="layer"
     id="layer1"
     transform="translate(-135.73143,-156.63272)">
    <path
       style="fill:#000000;fill-opacity:1;fill-rule:nonzero;stroke:none;stroke-width:0.352778"
       d="m 140.59709,158.42341 c 0,0.44959 -0.13023,0.8537 -0.38861,1.2113 -0.27905,0.3948 -0.63562,0.59117 -1.07074,0.59117 -0.17673,0 -0.32142,-0.0403 -0.43408,-0.11988 l 0.0537,-0.1695 c 0.0744,0.0114 0.13642,0.0197 0.18603,0.0248 0.0517,0.006 0.10129,0.008 0.14883,0.008 0.26458,0 0.48886,-0.16536 0.67386,-0.49609 0.0744,-0.14056 0.13229,-0.28215 0.17363,-0.42581 0.0413,-0.14573 0.062,-0.29456 0.062,-0.44649 0,-0.32453 -0.0858,-0.62632 -0.25631,-0.90537 -0.19844,-0.32246 -0.44959,-0.48369 -0.75241,-0.48369 -0.2067,0 -0.35967,0.0289 -0.45889,0.0868 -0.0413,0.031 -0.0868,0.0734 -0.13642,0.12815 -0.0496,0.0558 -0.0951,0.13436 -0.13643,0.23565 l -0.091,0.20257 c 0.2005,0.031 0.30179,0.18087 0.30179,0.45062 0,0.0723 -0.003,0.11575 -0.008,0.13229 0.14055,-0.005 0.2377,-0.0579 0.29352,-0.1571 0.0331,-0.0465 0.0713,-0.15709 0.11575,-0.33073 l 0.1943,0.0455 c -0.0971,0.41341 -0.30385,0.62631 -0.62011,0.63665 -0.0145,0.0889 -0.0362,0.185 -0.0661,0.28939 -0.0279,0.10232 -0.062,0.21497 -0.10335,0.339 -0.22324,0.64285 -0.59325,0.96325 -1.10794,0.96325 -0.46612,0 -0.82889,-0.19121 -1.08727,-0.57465 -0.23462,-0.33279 -0.35141,-0.74 -0.35141,-1.21956 0,-0.44338 0.13746,-0.84749 0.41342,-1.21129 0.14882,-0.19534 0.31212,-0.34314 0.49196,-0.44236 0.17879,-0.0992 0.37723,-0.14882 0.59531,-0.14882 0.0847,0 0.16123,0.006 0.22737,0.0165 0.0682,0.0114 0.12609,0.0248 0.17364,0.0413 l -0.0537,0.20671 c -0.0889,-0.0186 -0.15916,-0.0289 -0.21084,-0.0289 -0.0196,0 -0.0455,0 -0.0785,0 -0.031,0 -0.0661,0.003 -0.10749,0.008 -0.23771,0.031 -0.44442,0.21084 -0.62012,0.54157 -0.14366,0.27595 -0.21497,0.55294 -0.21497,0.83096 0,0.3421 0.0796,0.64698 0.23978,0.91363 0.19017,0.3173 0.44028,0.47543 0.75241,0.47543 0.0992,0 0.18603,-0.006 0.26045,-0.0207 0.0744,-0.0135 0.13849,-0.0372 0.1943,-0.0703 0.0579,-0.0331 0.10955,-0.0786 0.15709,-0.13643 0.0465,-0.0599 0.091,-0.13436 0.1323,-0.22324 0.0465,-0.10439 0.0837,-0.19947 0.11162,-0.28526 0.03,-0.0879 0.0517,-0.1757 0.0661,-0.26458 -0.3669,-0.0331 -0.54984,-0.1571 -0.54984,-0.37207 0,-0.20361 0.0796,-0.3328 0.23978,-0.38861 0.24805,-0.83199 0.65113,-1.2485 1.2113,-1.2485 0.45992,0 0.82269,0.19017 1.08727,0.57051 0.11266,0.16846 0.19844,0.3545 0.25632,0.5581 0.0599,0.20464 0.091,0.42478 0.091,0.66146 z"
       id="path367" />
  </g>
</svg>
