<?xml version="1.0" encoding="UTF-8" standalone="no"?>
<!-- Created with Inkscape (http://www.inkscape.org/) -->

<svg
   width="4.00595mm"
   height="5.3743501mm"
   viewBox="0 0 4.00595 5.3743501"
   version="1.1"
   id="svg1"
   inkscape:version="1.4 (86a8ad7, 2024-10-11)"
   sodipodi:docname="chart.svg"
   xmlns:inkscape="http://www.inkscape.org/namespaces/inkscape"
   xmlns:sodipodi="http://sodipodi.sourceforge.net/DTD/sodipodi-0.dtd"
   xmlns="http://www.w3.org/2000/svg"
   xmlns:svg="http://www.w3.org/2000/svg">
  <sodipodi:namedview
     id="namedview1"
     pagecolor="#ffffff"
     bordercolor="#000000"
     borderopacity="0.25"
     inkscape:showpageshadow="2"
     inkscape:pageopacity="0.0"
     inkscape:pagecheckerboard="0"
     inkscape:deskcolor="#d1d1d1"
     inkscape:document-units="mm"
     inkscape:zoom="11.616723"
     inkscape:cx="-4.6054297"
     inkscape:cy="17.001353"
     inkscape:window-width="1920"
     inkscape:window-height="1017"
     inkscape:window-x="-8"
     inkscape:window-y="-8"
     inkscape:window-maximized="1"
     inkscape:current-layer="layer1" />
  <defs
     id="defs1" />
  <g
     inkscape:label="Livello 1"
     inkscape:groupmode="layer"
     id="layer1"
     transform="translate(-103.1875,-145.78542)">
    <path
       style="fill:#000000;fill-opacity:1;fill-rule:nonzero;stroke:none;stroke-width:0.352778"
       d="m 107.19345,148.36097 c 0,0.6842 -0.17156,1.30018 -0.51263,1.84795 -0.3948,0.63458 -0.9126,0.95085 -1.55442,0.95085 -0.61495,0 -1.10174,-0.27802 -1.45934,-0.8351 -0.3204,-0.48782 -0.47956,-1.05213 -0.47956,-1.69498 0,-0.62012 0.2067,-1.21336 0.62012,-1.78181 0.44028,-0.62011 0.96531,-0.93017 1.57509,-0.93017 0.39378,0 0.73277,0.11059 1.01699,0.33073 0.12403,-0.28319 0.18811,-0.43822 0.19431,-0.46302 l 0.17776,0.0455 c -0.0475,0.21808 -0.11575,0.40928 -0.2067,0.57464 0.2067,0.22635 0.3638,0.5333 0.47129,0.92191 0.10438,0.35347 0.15709,0.69763 0.15709,1.03353 z m -0.9095,-1.97197 c -0.25425,-0.19017 -0.56431,-0.28526 -0.93018,-0.28526 -0.1819,0 -0.35553,0.0486 -0.52089,0.1447 -0.17674,0.11575 -0.26459,0.26045 -0.26459,0.43408 0,0.10542 0.0641,0.19844 0.19431,0.28112 0.11265,0.0723 0.22427,0.10748 0.33486,0.10748 0.40204,0 0.79788,-0.22737 1.18649,-0.68212 z m 0.72347,1.99264 c 0,-0.27802 -0.0527,-0.59324 -0.1571,-0.94671 -0.0527,-0.1788 -0.10955,-0.339 -0.1695,-0.47956 -0.0579,-0.14263 -0.12609,-0.26665 -0.20257,-0.37207 -0.26458,0.59531 -0.66352,0.89297 -1.19476,0.89297 -0.2129,0 -0.41547,-0.0672 -0.60771,-0.20257 -0.19017,-0.14573 -0.28525,-0.3235 -0.28525,-0.5333 0,-0.0517 0.002,-0.0992 0.008,-0.14056 0.005,-0.0413 0.0176,-0.0827 0.0372,-0.12403 -0.46612,0.46096 -0.69866,1.09141 -0.69866,1.89343 0,0.47439 0.16743,0.97048 0.50436,1.48828 0.37207,0.56534 0.78651,0.84749 1.24437,0.84749 0.091,0 0.19637,-0.0165 0.31832,-0.0496 0.34417,-0.0909 0.63872,-0.40617 0.8847,-0.94671 0.21188,-0.46509 0.31833,-0.90744 0.31833,-1.32705 z"
       id="path311" />
  </g>
</svg>
