<?xml version="1.0" encoding="UTF-8" standalone="no"?>
<!-- Created with Inkscape (http://www.inkscape.org/) -->

<svg
   width="230.09918mm"
   height="48.748848mm"
   viewBox="0 0 230.09918 48.748849"
   version="1.1"
   id="svg1"
   xml:space="preserve"
   xmlns="http://www.w3.org/2000/svg"
   xmlns:svg="http://www.w3.org/2000/svg"><defs
     id="defs1" /><g
     id="layer1"
     transform="translate(64.420464,-95.85765)"><path
       style="fill:none;fill-opacity:1;stroke:#06a4ae;stroke-width:0.4;stroke-miterlimit:4;stroke-dasharray:none;stroke-opacity:0.552732;paint-order:normal"
       d="M -64.420465,129.5837 H 165.67871"
       id="path45" /><path
       style="fill:none;fill-opacity:1;stroke:#06a4ae;stroke-width:0.4;stroke-miterlimit:4;stroke-dasharray:none;stroke-opacity:0.552732;paint-order:normal"
       d="M -64.420465,122.65656 H 165.67871"
       id="path46" /><path
       style="fill:none;fill-opacity:1;stroke:#06a4ae;stroke-width:0.4;stroke-miterlimit:4;stroke-dasharray:none;stroke-opacity:0.552732;paint-order:normal"
       d="M 165.67871,114.73285 H -64.420465"
       id="path47" /><path
       style="fill:none;fill-opacity:1;stroke:#06a4ae;stroke-width:0.4;stroke-miterlimit:4;stroke-dasharray:none;stroke-opacity:0.552732;paint-order:normal"
       d="M 165.67871,109.34109 H -64.420465"
       id="path48" /></g><g
     id="g48"
     transform="translate(64.420464,-95.85765)"><path
       style="fill:#000000;fill-opacity:1;stroke:none;stroke-width:0.836383;stroke-miterlimit:4;stroke-dasharray:none;stroke-opacity:1;paint-order:normal"
       d="m 142.04712,114.73288 v 3.0251 h 0.58702 c 0.39427,-1.83308 2.10767,-2.07921 3.21825,-1.91382 l -3.80527,6.86973 c 0,0 0.70717,-0.25256 2.02049,-0.18521 4.02302,0.20624 3.91479,2.703 2.07103,3.0981 -0.56634,0.0236 -1.77889,0.56496 -0.74337,0.88587 1.3164,0.32179 3.24615,-0.53894 3.28583,-2.04766 0.0844,-2.33101 -2.27403,-2.19097 -3.97365,-2.39093 l 3.46852,-7.34118 z"
       id="path22" /><path
       id="path21"
       style="fill:#000000;fill-opacity:1;stroke-width:0.897608"
       d="m 129.95568,114.71838 c -0.65957,-0.004 -0.68017,1.09372 -0.007,1.09802 l 2.83321,0.0181 v 2.23754 h -2.83274 c -0.77246,0 -0.75126,1.09802 0,1.09802 h 2.83274 c -0.0125,0.69895 0.0435,1.27685 -0.298,1.78133 -0.65485,0.007 -2.30482,-0.12098 -3.04012,1.20668 -0.15703,0.28352 0.14152,0.54326 0.414,0.39275 0.27248,-0.15051 0.62534,-0.7691 1.71542,-0.63285 2.38666,0.55565 5.79812,2.00198 8.0112,0.17452 0.44847,-0.41737 -0.0398,-0.86485 -0.5789,-0.5076 -0.32378,0.21455 -1.05556,0.39125 -1.8168,0.43006 -1.39516,0.0343 -2.70143,-0.50181 -4.00288,-0.92444 0.32488,-0.54372 0.31288,-1.16613 0.31502,-1.92045 h 2.8346 c 0.77096,0 0.80177,-1.09802 0,-1.09802 h -2.8346 v -2.23337 l 2.82579,0.0181 c 0.73187,0.004 0.73595,-1.09135 0.009,-1.09617 z" /><path
       id="path6"
       style="fill:#000000;fill-opacity:1;stroke-width:0.83223"
       d="m 116.62716,109.3411 c -0.66444,-0.004 -0.72496,1.16748 -0.0181,1.16548 l 4.453,-0.0126 v 2.67545 l -4.74544,0.0578 c -0.70981,0.009 -0.72169,1.17283 -0.004,1.16418 l 4.75061,-0.0574 v 1.9138 c -2.0479,0.25837 -4.96274,0.61529 -5.45847,3.0087 -0.10693,2.89082 2.46563,3.37421 4.79531,3.43327 3.52395,0.0594 4.92322,-2.38751 4.6893,-3.76065 -0.11469,-0.67317 -1.0568,-0.72788 -1.24252,0.0402 -0.33056,1.36708 -1.17805,3.14099 -3.34272,3.01706 -1.35408,-0.0775 -2.82582,-0.57192 -2.91201,-2.33564 -0.0778,-1.59068 2.00022,-2.62991 4.136,-2.92171 V 114.337 l 4.13854,0.0172 c 0.63059,0.002 0.6925,-1.16269 0.004,-1.16548 l -4.14325,-0.0168 v -2.66813 l 3.84738,0.0585 c 0.73881,0.0113 0.71959,-1.15926 0.0181,-1.16377 z" /><path
       id="path38"
       style="fill:#000000;fill-opacity:1;stroke-width:0.789206"
       d="m 90.752289,114.74646 c -0.723427,0 -0.657392,1.15387 0,1.14547 l 2.650928,-0.0338 -0.0024,2.65325 -2.387861,0.0106 c -0.634807,0.003 -0.601289,1.13994 0.0063,1.13717 l 2.230439,-0.0101 c -0.233763,1.12446 -1.353204,2.0359 -1.954611,2.17578 -0.491573,0.11434 -0.511011,0.68233 0,0.78917 0.543684,0.11366 1.387922,0.14037 1.848692,0.57915 0.576831,0.54935 0.465229,1.23716 1.051562,1.87411 0.446683,0.48526 1.498955,1.42361 2.440738,1.519 0.405026,0.041 0.547973,-0.47523 0.229605,-0.75531 -0.215831,-0.18987 -1.282461,-0.45392 -1.7095,-1.79838 -0.103339,-0.32532 -0.385701,-0.97629 -0.776311,-1.34828 -0.431254,-0.41068 -1.214502,-0.50328 -1.737714,-0.65353 0.409866,-0.35477 1.224272,-1.19273 1.419285,-2.38545 l 2.397656,-0.0106 c 0.596995,-0.002 0.639589,-1.14015 -0.0063,-1.13717 l -2.208555,0.0102 0.02502,-2.65895 2.362583,-0.0294 c 0.75335,-0.01 0.468025,-1.07293 0,-1.07293 z" /><path
       id="path2"
       style="fill:#000000;fill-opacity:1;stroke-width:0.820786"
       d="m 73.415565,109.34425 c -1.418494,4e-5 -1.428373,2.38417 0.02936,2.36325 l 4.991849,-0.0717 c 0.01814,0.56267 0.03513,1.19589 0.0403,1.89597 0.0041,0.62214 -8.21e-4,1.26562 -0.01995,1.88196 h -4.768332 c -1.240857,0 -1.378117,2.15819 0,2.15819 h 4.54777 c -0.03217,0.16285 -0.0664,0.60674 -0.102647,0.71121 -0.269029,0.77543 -1.02375,1.69594 -1.94601,2.38544 -0.922252,0.68949 -2.03106,0.94848 -2.83589,1.14478 -0.654684,0.15969 -0.635018,0.80259 0,0.88084 1.251863,0.15428 2.554098,0.0229 3.721099,0.5685 0.923467,0.47946 1.00539,1.2024 2.142819,2.04647 1.137429,0.84407 3.078079,2.1921 4.881576,2.37956 0.628952,0.0398 0.808704,-0.52201 0.226496,-0.73463 -1.083536,-0.39569 -1.468058,-0.89165 -1.748324,-1.48287 -0.280266,-0.59122 -0.364396,-1.27734 -1.451027,-2.19046 -1.08663,-0.91312 -3.098919,-1.23357 -4.965403,-1.34818 1.195098,-0.88808 2.320248,-1.92478 2.878965,-3.33642 0.07313,-0.21087 0.131014,-0.75683 0.177717,-1.02424 h 4.418398 c 1.275255,0 1.319849,-2.15819 0,-2.15819 h -4.219473 c 0.01871,-0.62399 0.02413,-1.26863 0.01954,-1.89002 -0.0049,-0.70214 -0.02224,-1.3363 -0.04071,-1.9019 l 4.519782,-0.0649 c 1.213869,-0.0174 1.356578,-2.21292 0.03053,-2.21289 z" /><path
       id="path36"
       style="fill:#000000;fill-opacity:1;stroke-width:1.02634"
       d="m 37.421249,114.7191 c -0.852398,0 -0.914715,1.49898 0,1.49898 h 4.429628 l -0.0297,1.87593 -4.39781,-0.0499 c -0.731691,-0.008 -0.798995,1.33225 -0.0064,1.33495 l 4.186767,0.0143 c -0.913031,1.08147 -2.193757,1.79155 -3.454851,2.3888 -0.686112,0.39459 -0.435096,1.29386 0.333161,1.09258 1.341712,-0.35154 3.406936,-0.38128 3.445857,0.32789 0.03892,0.70917 -3.099772,3.61491 -2.94322,4.89265 0.119869,0.97835 1.036659,1.65484 2.279084,1.687 0.68196,0.0177 0.885076,-0.63709 0.360225,-1.07472 -0.595568,-0.5084 -1.253493,-0.69946 -0.771308,-1.3641 0.593898,-1.37182 3.303906,-3.59875 2.829761,-4.85198 -0.326108,-0.86194 -1.78901,-1.03576 -2.717504,-0.99187 0.888532,-0.51306 1.718713,-1.16717 2.160968,-2.10081 l 3.468112,0.0122 c 0.740755,0.003 0.684303,-1.33595 0.0042,-1.33283 l -3.307028,0.0159 v -1.87593 h 3.55682 c 0.774373,0 0.730465,-1.49905 0,-1.49905 z" /><path
       id="path23"
       style="fill:#000000;fill-opacity:1;stroke-width:0.893929"
       d="M 31.084894,109.28354 H 18.034332 c -1.181171,0 -1.181171,2.58969 0,2.58969 h 9.431664 c 0,0 -7.417558,3.29293 -8.42461,3.55024 -1.007054,0.25731 -1.352578,0.374 -1.352578,0.374 -0.820604,0.18632 -0.974723,2.17987 0.0716,2.14437 l 10.144442,-0.34415 c 0,0 -7.028326,2.43421 -8.664996,2.78699 -1.63667,0.35278 -1.479442,0.31049 -1.479442,0.31049 -0.990268,0.16059 -1.197193,2.0847 0,2.0847 h 6.391551 c -1.540531,0.55817 -4.344808,1.86529 -4.344808,4.43639 0,3.76204 5.134988,4.219 7.386971,2.8828 0.891147,-0.52876 0.351901,-1.62671 -0.66956,-1.37796 -3.771877,0.91854 -3.82293,-1.29971 -3.868958,-1.68797 -0.321103,-2.7085 1.432711,-3.35836 4.934651,-4.22174 l -0.0046,-0.0314 h 2.693634 c 1.345948,0 1.345948,-2.14576 0,-2.14576 h -8.27816 c 0,0 6.889437,-2.57453 8.441126,-2.98212 l 0.651464,-0.17113 c 1.147555,-0.30143 1.24726,-2.08979 0,-2.05754 l -9.94997,0.25731 c 0,0 7.320769,-2.91995 8.985462,-3.54867 l 0.955727,-0.34467 c 1.159281,-0.41807 1.283313,-2.5039 0,-2.5039 z" /><path
       style="fill:#000000;fill-opacity:1;stroke-width:1.1165"
       d="m -16.236355,114.61925 c -0.663505,-0.0127 -0.681266,1.32188 -0.03489,1.33891 l 3.142332,0.0828 -3.144512,1.85786 c -0.590857,0.34911 -0.72269,1.14257 0,1.13619 l 3.454166,-0.0305 -3.759459,2.29184 c -0.741899,0.45228 -0.868887,1.33678 0,1.33678 h 2.786883 c -1.01258,0.42765 -4.052612,2.22725 -4.119266,4.64918 -0.113238,4.11456 3.04747,4.2383 5.213958,3.97897 2.403986,-0.28776 5.1038505,-2.24329 5.5067732,-4.60482 0.15988,-0.93705 -1.0069884,-0.97303 -1.2130544,0 -0.3452547,1.63026 -2.7655548,2.92446 -4.6192708,3.22592 -1.795653,0.29201 -3.758659,-0.93728 -3.378017,-2.60007 0.583612,-2.54946 4.272027,-3.85974 6.228772,-4.77128 0.7337524,-0.34182 0.6211297,-1.32832 -0.224608,-1.30623 l -3.50432,0.0916 3.770362,-2.48257 c 0.5890837,-0.38786 0.4890797,-1.04817 0,-1.06064 h -3.53763 l 3.53763,-1.71213 c 0.5989327,-0.28988 0.6652694,-1.2924 0,-1.30512 z"
       id="path37" /><path
       id="path1"
       style="fill:#000000;fill-opacity:1;stroke-width:0.320134"
       d="m -46.977992,109.42251 c -0.489211,0.36763 -0.425279,0.78159 0,1.20994 0.284159,0.28621 3.024894,0 3.024894,1.81494 0,1.81494 -2.701682,1.57369 -3.024894,1.81494 -0.458449,0.3422 -0.458449,0.74552 0,1.20997 0.283332,0.28704 3.024894,0 3.024894,1.81493 0,1.81494 -2.704137,1.57044 -3.024894,1.81494 -0.489013,0.37276 -0.489013,0.77608 0,1.20996 0.301688,0.26768 3.024894,0 3.024894,1.81494 0,1.81494 -2.741726,1.52774 -3.024894,1.81494 -0.427885,0.43397 -0.427885,0.83728 0,1.20995 0.304137,0.26489 3.024894,0 3.024894,1.81493 0,1.81494 -2.727055,1.54299 -3.024894,1.81494 -0.458449,0.41861 -0.458449,0.82192 0,1.20996 0.307849,0.26056 4.234853,0 4.234853,-3.0249 0,-1.25834 -0.725975,-1.99643 -1.585045,-2.4199 0.85907,-0.4235 1.585045,-1.16157 1.585045,-2.41992 0,-1.25836 -0.725975,-1.99643 -1.585045,-2.41993 0.85907,-0.42348 1.585045,-1.16155 1.585045,-2.41991 0,-1.25836 -0.725975,-1.99644 -1.585045,-2.4199 0.85907,-0.42349 1.585045,-1.16156 1.585045,-2.41994 0,-3.02488 -3.912428,-3.26717 -4.234853,-3.02488 z" /></g></svg>
