<?xml version="1.0" encoding="UTF-8" standalone="no"?>
<!-- Created with Inkscape (http://www.inkscape.org/) -->

<svg
   width="237.099mm"
   height="48.748848mm"
   viewBox="0 0 237.099 48.748849"
   version="1.1"
   id="svg1"
   xml:space="preserve"
   sodipodi:docname="dh-evolution.svg"
   inkscape:version="1.4 (86a8ad7, 2024-10-11)"
   xmlns:inkscape="http://www.inkscape.org/namespaces/inkscape"
   xmlns:sodipodi="http://sodipodi.sourceforge.net/DTD/sodipodi-0.dtd"
   xmlns="http://www.w3.org/2000/svg"
   xmlns:svg="http://www.w3.org/2000/svg"><sodipodi:namedview
     id="namedview1"
     pagecolor="#ffffff"
     bordercolor="#000000"
     borderopacity="0.25"
     inkscape:showpageshadow="2"
     inkscape:pageopacity="0.0"
     inkscape:pagecheckerboard="0"
     inkscape:deskcolor="#d1d1d1"
     inkscape:document-units="mm"
     inkscape:zoom="2.8880543"
     inkscape:cx="746.86961"
     inkscape:cy="95.739196"
     inkscape:window-width="1920"
     inkscape:window-height="1017"
     inkscape:window-x="-8"
     inkscape:window-y="-8"
     inkscape:window-maximized="1"
     inkscape:current-layer="g48"><inkscape:page
       x="0"
       y="0"
       width="237.099"
       height="48.748848"
       id="page5"
       margin="0"
       bleed="0" /></sodipodi:namedview><defs
     id="defs1" /><g
     id="layer1"
     transform="translate(64.420464,-95.85765)"><path
       style="fill:none;fill-opacity:1;stroke:#06a4ae;stroke-width:0.4;stroke-miterlimit:4;stroke-dasharray:none;stroke-opacity:0.552732;paint-order:normal"
       d="M -64.420465,129.5837 H 172.67853"
       id="path45"
       sodipodi:nodetypes="cc" /><path
       style="fill:none;fill-opacity:1;stroke:#06a4ae;stroke-width:0.4;stroke-miterlimit:4;stroke-dasharray:none;stroke-opacity:0.552732;paint-order:normal"
       d="M -64.420465,122.65656 H 172.67853"
       id="path46"
       sodipodi:nodetypes="cc" /><path
       style="fill:none;fill-opacity:1;stroke:#06a4ae;stroke-width:0.4;stroke-miterlimit:4;stroke-dasharray:none;stroke-opacity:0.552732;paint-order:normal"
       d="m 172.67853,114.73285 -237.098995,0"
       id="path47"
       sodipodi:nodetypes="cc" /><path
       style="fill:none;fill-opacity:1;stroke:#06a4ae;stroke-width:0.4;stroke-miterlimit:4;stroke-dasharray:none;stroke-opacity:0.552732;paint-order:normal"
       d="M 172.67853,109.34109 H -64.420465"
       id="path48"
       sodipodi:nodetypes="cc" /></g><g
     id="g48"
     transform="translate(64.420464,-95.85765)"><path
       id="path4"
       style="fill:#000000;fill-opacity:1;stroke-width:0.4;stroke-opacity:0.552732"
       d="m 217.71283,18.8752 -1.04543,2.596358 0.7069,-0.03411 c 0,0 0.59143,-0.701762 1.08784,-0.924607 0.37614,-0.168851 1.70284,-0.103353 1.70284,-0.103353 l -1.55205,2.457995 h -2.88472 c -0.56824,0 -0.58793,0.992248 -0.032,0.988053 l 2.34574,-0.0155 -1.71776,2.958874 h 4.47207 c -0.57712,1.211699 -1.0225,1.739746 -2.46794,3.211141 2.03468,-0.514279 3.31262,-2.303665 3.97838,-4.438492 h -4.57513 l 1.2375,-1.741865 3.46719,-0.02274 c 0.39161,-0.0026 0.4323,-0.939477 0,-0.939477 h -2.80573 l 2.67596,-3.992277 z"
       sodipodi:nodetypes="cccsccsscccccccssccc"
       transform="translate(-64.420464,95.85765)" /><path
       style="fill:#000000;fill-opacity:1;stroke:none;stroke-width:0.836383;stroke-miterlimit:4;stroke-dasharray:none;stroke-opacity:1;paint-order:normal"
       d="m 142.04712,114.73288 v 3.0251 h 0.58702 c 0.39427,-1.83308 2.10767,-2.07921 3.21825,-1.91382 l -3.80527,6.86973 c 0,0 0.70717,-0.25256 2.02049,-0.18521 4.02302,0.20624 3.91479,2.703 2.07103,3.0981 -0.56634,0.0236 -1.77889,0.56496 -0.74337,0.88587 1.3164,0.32179 3.24615,-0.53894 3.28583,-2.04766 0.0844,-2.33101 -2.27403,-2.19097 -3.97365,-2.39093 l 3.46852,-7.34118 z"
       id="path22" /><path
       id="path21"
       style="fill:#000000;fill-opacity:1;stroke-width:0.897608"
       d="m 129.95568,114.71838 c -0.65957,-0.004 -0.68017,1.09372 -0.007,1.09802 l 2.83321,0.0181 v 2.23754 h -2.83274 c -0.77246,0 -0.75126,1.09802 0,1.09802 h 2.83274 c -0.0125,0.69895 0.0435,1.27685 -0.298,1.78133 -0.65485,0.007 -2.30482,-0.12098 -3.04012,1.20668 -0.15703,0.28352 0.14152,0.54326 0.414,0.39275 0.27248,-0.15051 0.62534,-0.7691 1.71542,-0.63285 2.38666,0.55565 5.79812,2.00198 8.0112,0.17452 0.44847,-0.41737 -0.0398,-0.86485 -0.5789,-0.5076 -0.32378,0.21455 -1.05556,0.39125 -1.8168,0.43006 -1.39516,0.0343 -2.70143,-0.50181 -4.00288,-0.92444 0.32488,-0.54372 0.31288,-1.16613 0.31502,-1.92045 h 2.8346 c 0.77096,0 0.80177,-1.09802 0,-1.09802 h -2.8346 v -2.23337 l 2.82579,0.0181 c 0.73187,0.004 0.73595,-1.09135 0.009,-1.09617 z" /><path
       id="path6"
       style="fill:#000000;fill-opacity:1;stroke-width:0.83223"
       d="m 116.62716,109.3411 c -0.66444,-0.004 -0.72496,1.16748 -0.0181,1.16548 l 4.453,-0.0126 v 2.67545 l -4.74544,0.0578 c -0.70981,0.009 -0.72169,1.17283 -0.004,1.16418 l 4.75061,-0.0574 v 1.9138 c -2.0479,0.25837 -4.96274,0.61529 -5.45847,3.0087 -0.10693,2.89082 2.46563,3.37421 4.79531,3.43327 3.52395,0.0594 4.92322,-2.38751 4.6893,-3.76065 -0.11469,-0.67317 -1.0568,-0.72788 -1.24252,0.0402 -0.33056,1.36708 -1.17805,3.14099 -3.34272,3.01706 -1.35408,-0.0775 -2.82582,-0.57192 -2.91201,-2.33564 -0.0778,-1.59068 2.00022,-2.62991 4.136,-2.92171 V 114.337 l 4.13854,0.0172 c 0.63059,0.002 0.6925,-1.16269 0.004,-1.16548 l -4.14325,-0.0168 v -2.66813 l 3.84738,0.0585 c 0.73881,0.0113 0.71959,-1.15926 0.0181,-1.16377 z" /><path
       id="path38"
       style="fill:#000000;fill-opacity:1;stroke-width:0.789206"
       d="m 90.752289,114.74646 c -0.723427,0 -0.657392,1.15387 0,1.14547 l 2.650928,-0.0338 -0.0024,2.65325 -2.387861,0.0106 c -0.634807,0.003 -0.601289,1.13994 0.0063,1.13717 l 2.230439,-0.0101 c -0.233763,1.12446 -1.353204,2.0359 -1.954611,2.17578 -0.491573,0.11434 -0.511011,0.68233 0,0.78917 0.543684,0.11366 1.387922,0.14037 1.848692,0.57915 0.576831,0.54935 0.465229,1.23716 1.051562,1.87411 0.446683,0.48526 1.498955,1.42361 2.440738,1.519 0.405026,0.041 0.547973,-0.47523 0.229605,-0.75531 -0.215831,-0.18987 -1.282461,-0.45392 -1.7095,-1.79838 -0.103339,-0.32532 -0.385701,-0.97629 -0.776311,-1.34828 -0.431254,-0.41068 -1.214502,-0.50328 -1.737714,-0.65353 0.409866,-0.35477 1.224272,-1.19273 1.419285,-2.38545 l 2.397656,-0.0106 c 0.596995,-0.002 0.639589,-1.14015 -0.0063,-1.13717 l -2.208555,0.0102 0.02502,-2.65895 2.362583,-0.0294 c 0.75335,-0.01 0.468025,-1.07293 0,-1.07293 z" /><path
       id="path2"
       style="fill:#000000;fill-opacity:1;stroke-width:0.820786"
       d="m 73.415565,109.34425 c -1.418494,4e-5 -1.428373,2.38417 0.02936,2.36325 l 4.991849,-0.0717 c 0.01814,0.56267 0.03513,1.19589 0.0403,1.89597 0.0041,0.62214 -8.21e-4,1.26562 -0.01995,1.88196 h -4.768332 c -1.240857,0 -1.378117,2.15819 0,2.15819 h 4.54777 c -0.03217,0.16285 -0.0664,0.60674 -0.102647,0.71121 -0.269029,0.77543 -1.02375,1.69594 -1.94601,2.38544 -0.922252,0.68949 -2.03106,0.94848 -2.83589,1.14478 -0.654684,0.15969 -0.635018,0.80259 0,0.88084 1.251863,0.15428 2.554098,0.0229 3.721099,0.5685 0.923467,0.47946 1.00539,1.2024 2.142819,2.04647 1.137429,0.84407 3.078079,2.1921 4.881576,2.37956 0.628952,0.0398 0.808704,-0.52201 0.226496,-0.73463 -1.083536,-0.39569 -1.468058,-0.89165 -1.748324,-1.48287 -0.280266,-0.59122 -0.364396,-1.27734 -1.451027,-2.19046 -1.08663,-0.91312 -3.098919,-1.23357 -4.965403,-1.34818 1.195098,-0.88808 2.320248,-1.92478 2.878965,-3.33642 0.07313,-0.21087 0.131014,-0.75683 0.177717,-1.02424 h 4.418398 c 1.275255,0 1.319849,-2.15819 0,-2.15819 h -4.219473 c 0.01871,-0.62399 0.02413,-1.26863 0.01954,-1.89002 -0.0049,-0.70214 -0.02224,-1.3363 -0.04071,-1.9019 l 4.519782,-0.0649 c 1.213869,-0.0174 1.356578,-2.21292 0.03053,-2.21289 z" /><path
       id="path36"
       style="fill:#000000;fill-opacity:1;stroke-width:1.02634"
       d="m 37.421249,114.7191 c -0.852398,0 -0.914715,1.49898 0,1.49898 h 4.429628 l -0.0297,1.87593 -4.39781,-0.0499 c -0.731691,-0.008 -0.798995,1.33225 -0.0064,1.33495 l 4.186767,0.0143 c -0.913031,1.08147 -2.193757,1.79155 -3.454851,2.3888 -0.686112,0.39459 -0.435096,1.29386 0.333161,1.09258 1.341712,-0.35154 3.406936,-0.38128 3.445857,0.32789 0.03892,0.70917 -3.099772,3.61491 -2.94322,4.89265 0.119869,0.97835 1.036659,1.65484 2.279084,1.687 0.68196,0.0177 0.885076,-0.63709 0.360225,-1.07472 -0.595568,-0.5084 -1.253493,-0.69946 -0.771308,-1.3641 0.593898,-1.37182 3.303906,-3.59875 2.829761,-4.85198 -0.326108,-0.86194 -1.78901,-1.03576 -2.717504,-0.99187 0.888532,-0.51306 1.718713,-1.16717 2.160968,-2.10081 l 3.468112,0.0122 c 0.740755,0.003 0.684303,-1.33595 0.0042,-1.33283 l -3.307028,0.0159 v -1.87593 h 3.55682 c 0.774373,0 0.730465,-1.49905 0,-1.49905 z" /><path
       id="path23"
       style="fill:#000000;fill-opacity:1;stroke-width:0.893929"
       d="M 31.084894,109.28354 H 18.034332 c -1.181171,0 -1.181171,2.58969 0,2.58969 h 9.431664 c 0,0 -7.417558,3.01809 -8.42461,3.2754 -1.007054,0.25731 -1.352578,0.374 -1.352578,0.374 -0.820604,0.18632 -0.974723,2.17987 0.0716,2.14437 l 10.144442,-0.34415 c 0,0 -7.028326,2.70905 -8.664996,3.06183 -1.63667,0.35278 -1.479442,0.31049 -1.479442,0.31049 -0.990268,0.16059 -1.197193,2.0847 0,2.0847 h 6.391551 c -1.540531,0.55817 -4.344808,1.86529 -4.344808,4.43639 0,3.76204 5.134988,4.219 7.386971,2.8828 0.891147,-0.52876 0.351901,-1.62671 -0.66956,-1.37796 -3.771877,0.91854 -3.82293,-1.29971 -3.868958,-1.68797 -0.321103,-2.7085 1.432711,-3.35836 4.934651,-4.22174 l -0.0046,-0.0314 h 2.693634 c 1.345948,0 1.345948,-2.14576 0,-2.14576 h -8.27816 c 0,0 6.88944,-2.84936 8.441126,-3.25696 l 0.651464,-0.17113 c 1.14755,-0.30145 1.24726,-2.08979 0,-2.05754 l -9.94997,0.25731 c 0,0 7.320769,-2.64511 8.985462,-3.27383 l 0.955727,-0.34467 c 1.159281,-0.41807 1.283313,-2.5039 0,-2.5039 z"
       sodipodi:nodetypes="csscscccscscssssccsscsscccscc" /><path
       style="fill:#000000;fill-opacity:1;stroke-width:1.00029"
       d="m -15.293275,114.61924 c -0.594447,-0.0114 -0.610359,1.1843 -0.03126,1.19955 l 2.815274,0.0742 -2.817227,1.66449 c -0.52936,0.31277 -0.647472,1.02365 0,1.01793 l 3.094651,-0.0273 -3.368169,2.0533 c -0.664681,0.4052 -0.778452,1.19764 0,1.19764 h 2.49682 c -0.907189,0.38314 -3.63081,1.99544 -3.690527,4.16529 -0.101452,3.68631 2.730285,3.79717 4.671282,3.56483 2.1537761,-0.2578 4.5726348,-2.0098 4.9336208,-4.12554 0.1432394,-0.83952 -0.9021796,-0.87175 -1.086798,0 -0.3093201,1.46058 -2.4777118,2.62008 -4.1384908,2.89016 -1.608759,0.26162 -3.367452,-0.83972 -3.026428,-2.32945 0.522869,-2.28411 3.827388,-3.45801 5.5804726,-4.27468 0.6573824,-0.30624 0.5564817,-1.19006 -0.2012306,-1.17027 l -3.139585,0.0821 3.3779371,-2.22418 c 0.527771,-0.34749 0.4381756,-0.93907 0,-0.95024 H -12.99236 l 3.1694281,-1.53393 c 0.5365949,-0.25971 0.5960272,-1.15789 0,-1.16928 z"
       id="path37" /><path
       style="fill:#000000;fill-opacity:1;stroke-width:0.4;stroke-opacity:0.552732"
       d="m -43.690421,109.71251 c 0.109591,-0.19636 1.198433,-0.77736 2.591207,-0.35629 2.369047,0.71622 1.537101,3.97312 0.04049,4.67227 0.655899,0.59922 1.603312,1.01219 1.498044,2.6074 -0.102551,1.55404 -1.534264,2.19548 -1.534264,2.19548 0,0 1.564243,1.12512 1.582849,2.1286 0.0148,0.7983 -1.813845,2.05677 -1.813845,2.05677 0,0 2.547364,2.15102 1.931952,3.96487 -0.615411,1.81384 -3.176193,2.77864 -3.923129,2.7312 -0.729285,-0.0463 -1.375766,-0.64387 -1.051865,-1.45362 0.323901,-0.80975 1.514812,-1.55506 1.553097,-2.56864 0.0392,-1.03776 -2.663509,-1.65386 -2.72829,-2.78751 -0.06478,-1.13366 0.773841,-1.59953 1.375428,-1.95059 0.458484,-0.26755 1.341747,-0.61182 1.406528,-1.35679 0.06478,-0.74498 -2.295928,-1.23746 -2.150152,-2.02194 0.142403,-0.76633 2.978204,-1.10093 2.90983,-1.74873 -0.07099,-0.67259 -2.335678,-1.08392 -2.108948,-1.56977 0.226731,-0.48585 1.665789,-1.41597 1.821943,-2.25921 0.16195,-0.87453 0.05669,-1.40087 -0.75307,-1.72477 -0.809752,-0.3239 -0.786768,-0.30973 -0.647801,-0.55873 z"
       id="path3"
       sodipodi:nodetypes="sscscscsssssssssssss" /></g></svg>
