<?xml version="1.0" encoding="UTF-8" standalone="no"?>
<!-- Created with Inkscape (http://www.inkscape.org/) -->

<svg
   width="3.7124751mm"
   height="5.74231mm"
   viewBox="0 0 3.7124751 5.74231"
   version="1.1"
   id="svg1"
   inkscape:version="1.4 (86a8ad7, 2024-10-11)"
   sodipodi:docname="chart.svg"
   xmlns:inkscape="http://www.inkscape.org/namespaces/inkscape"
   xmlns:sodipodi="http://sodipodi.sourceforge.net/DTD/sodipodi-0.dtd"
   xmlns="http://www.w3.org/2000/svg"
   xmlns:svg="http://www.w3.org/2000/svg">
  <sodipodi:namedview
     id="namedview1"
     pagecolor="#ffffff"
     bordercolor="#000000"
     borderopacity="0.25"
     inkscape:showpageshadow="2"
     inkscape:pageopacity="0.0"
     inkscape:pagecheckerboard="0"
     inkscape:deskcolor="#d1d1d1"
     inkscape:document-units="mm"
     inkscape:zoom="8.2142634"
     inkscape:cx="9.4348082"
     inkscape:cy="7.3652374"
     inkscape:window-width="1920"
     inkscape:window-height="1017"
     inkscape:window-x="-8"
     inkscape:window-y="-8"
     inkscape:window-maximized="1"
     inkscape:current-layer="layer1" />
  <defs
     id="defs1" />
  <g
     inkscape:label="Livello 1"
     inkscape:groupmode="layer"
     id="layer1"
     transform="translate(-94.720829,-153.72289)">
    <path
       style="fill:#000000;fill-opacity:1;fill-rule:nonzero;stroke:none;stroke-width:0.352778"
       d="m 98.433264,158.14642 c 0,0.23668 -0.08062,0.42581 -0.239779,0.56637 -0.157096,0.14263 -0.351402,0.21497 -0.582913,0.21497 -0.209804,0 -0.384471,-0.0723 -0.525032,-0.21497 -0.13849,-0.14056 -0.206703,-0.31213 -0.206703,-0.51263 v -0.3266 c -0.454755,0.0661 -0.800985,0.23358 -1.037664,0.50437 -0.234611,0.26975 -0.366903,0.63252 -0.396875,1.08727 l -0.186034,-0.0537 c 0.0052,-0.24598 0.04341,-0.48576 0.115754,-0.71934 0.07131,-0.23151 0.175701,-0.44132 0.314194,-0.62839 0.137457,-0.185 0.305922,-0.34106 0.50436,-0.46715 0.198437,-0.12713 0.426847,-0.20877 0.686265,-0.24391 v -1.46761 c -0.04134,0.10542 -0.09922,0.22117 -0.173633,0.34726 -0.07442,0.12713 -0.164331,0.24598 -0.268718,0.35554 -0.10232,0.10748 -0.213942,0.1974 -0.334864,0.26871 -0.118854,0.0724 -0.23978,0.10749 -0.363802,0.10749 -0.361735,0 -0.622184,-0.0971 -0.781346,-0.29352 -0.157099,-0.19534 -0.235645,-0.46716 -0.235645,-0.81442 v -2.1332 h 0.669727 v 2.1332 c 0,0.0723 0.0021,0.15193 0.0083,0.23978 0.0083,0.0889 0.02688,0.1695 0.05788,0.24391 0.03306,0.0744 0.07648,0.13849 0.132292,0.19017 0.05788,0.0527 0.133325,0.0785 0.227376,0.0785 0.07131,0 0.142624,-0.0186 0.214972,-0.0579 0.07442,-0.0382 0.141594,-0.0847 0.202572,-0.14056 0.06305,-0.0579 0.119888,-0.11782 0.169499,-0.1819 0.05168,-0.0662 0.09922,-0.12506 0.140561,-0.17777 0.08268,-0.11782 0.158129,-0.25011 0.227376,-0.39688 0.07131,-0.14882 0.107488,-0.29868 0.107488,-0.45061 v -1.48001 h 0.582908 v 3.63802 c 0.140561,0.0165 0.264584,0.031 0.372072,0.0455 0.107484,0.0165 0.216005,0.0744 0.326594,0.17363 0.08268,0.0765 0.148827,0.15917 0.198438,0.24805 0.04961,0.0909 0.07442,0.19637 0.07442,0.31833 z m -0.202572,0.0909 c 0,-0.10749 -0.02791,-0.18914 -0.08268,-0.24391 -0.05581,-0.0558 -0.121955,-0.0951 -0.198437,-0.1199 -0.07751,-0.0228 -0.16123,-0.0351 -0.25218,-0.0372 -0.09095,0 -0.175701,0 -0.252183,0 v 0.38034 c 0,0.12402 0.03514,0.23358 0.107488,0.33073 0.07442,0.0992 0.177768,0.14882 0.31006,0.14882 0.120921,0 0.211871,-0.0517 0.272852,-0.15296 0.06304,-0.0992 0.09508,-0.20154 0.09508,-0.30592 z"
       id="path363" />
  </g>
</svg>
