<?xml version="1.0" encoding="UTF-8" standalone="no"?>
<!-- Created with Inkscape (http://www.inkscape.org/) -->

<svg
   width="6.13096mm"
   height="8.2682896mm"
   viewBox="0 0 6.13096 8.2682896"
   version="1.1"
   id="svg1"
   inkscape:version="1.4 (86a8ad7, 2024-10-11)"
   sodipodi:docname="chart.svg"
   xmlns:inkscape="http://www.inkscape.org/namespaces/inkscape"
   xmlns:sodipodi="http://sodipodi.sourceforge.net/DTD/sodipodi-0.dtd"
   xmlns="http://www.w3.org/2000/svg"
   xmlns:svg="http://www.w3.org/2000/svg">
  <sodipodi:namedview
     id="namedview1"
     pagecolor="#ffffff"
     bordercolor="#000000"
     borderopacity="0.25"
     inkscape:showpageshadow="2"
     inkscape:pageopacity="0.0"
     inkscape:pagecheckerboard="0"
     inkscape:deskcolor="#d1d1d1"
     inkscape:document-units="mm"
     inkscape:zoom="8.2142634"
     inkscape:cx="6.6348006"
     inkscape:cy="14.547866"
     inkscape:window-width="1920"
     inkscape:window-height="1017"
     inkscape:window-x="-8"
     inkscape:window-y="-8"
     inkscape:window-maximized="1"
     inkscape:current-layer="layer1" />
  <defs
     id="defs1" />
  <g
     inkscape:label="Livello 1"
     inkscape:groupmode="layer"
     id="layer1"
     transform="translate(-131.76276,-180.18121)">
    <path
       style="fill:#000000;fill-opacity:1;fill-rule:nonzero;stroke:none;stroke-width:0.352778"
       d="m 137.89339,184.28231 c 0,0.44132 -0.57464,0.75655 -1.72393,0.94672 v 3.22047 h -0.69866 v -3.20394 c -0.5271,-0.0465 -0.95498,-0.21187 -1.28571,-0.49609 -0.38344,-0.31936 -0.57464,-0.72554 -0.57464,-1.21957 0,-0.59737 0.34313,-0.8971 1.02939,-0.8971 0.13436,0 0.29352,0.0744 0.47542,0.22324 0.154,0.1354 0.27285,0.27286 0.35554,0.41342 v -1.9017 c -0.14883,0.0413 -0.31006,0.0517 -0.48369,0.0289 -0.17364,-0.0248 -0.34314,-0.0631 -0.5085,-0.11576 -0.16537,-0.0517 -0.32039,-0.10852 -0.46302,-0.1695 -0.14056,-0.063 -0.25838,-0.11575 -0.3514,-0.15709 -0.33693,-0.154 -0.62839,-0.23151 -0.87643,-0.23151 -0.55397,0 -0.83406,0.21807 -0.83923,0.65319 l -0.17777,0.0289 c -0.006,-0.0413 -0.008,-0.0765 -0.008,-0.10748 0,-0.03 0,-0.0506 0,-0.062 0,-0.30593 0.14159,-0.56224 0.42581,-0.76895 0.25321,-0.19017 0.54364,-0.28525 0.8723,-0.28525 0.24184,0 0.45578,0.0403 0.64079,0.11989 0.18706,0.0806 0.35656,0.1695 0.50849,0.26872 0.154,0.0971 0.29972,0.185 0.43822,0.26458 0.14056,0.0806 0.28525,0.11989 0.43408,0.11989 0.10439,0 0.19534,-0.0289 0.27285,-0.0868 0.0765,-0.06 0.11576,-0.14056 0.11576,-0.23978 v -0.44648 h 0.69866 v 4.83278 c 0.18707,-0.0351 0.34727,-0.0744 0.47956,-0.11576 0.13229,-0.0413 0.23668,-0.0827 0.31419,-0.12402 0.27802,-0.14573 0.41755,-0.3638 0.41755,-0.65319 0,-0.11782 -0.0393,-0.26045 -0.11576,-0.42582 l 0.0786,-0.14056 c 0.0765,0.0228 0.14676,0.0579 0.21084,0.10749 0.0661,0.0476 0.12402,0.10542 0.17363,0.17364 0.0517,0.0661 0.092,0.13849 0.11989,0.21497 0.03,0.0775 0.0455,0.15503 0.0455,0.23151 z m -2.42259,0.71521 v -1.27331 c 0,-0.0548 -0.0196,-0.12196 -0.0579,-0.20257 -0.0393,-0.0796 -0.0786,-0.13333 -0.11989,-0.16123 -0.13022,-0.093 -0.339,-0.14057 -0.62839,-0.14057 -0.19016,0 -0.33899,0.0744 -0.44648,0.22325 -0.10542,0.14676 -0.1571,0.31833 -0.1571,0.51676 0,0.30903 0.16537,0.56017 0.4961,0.75241 0.26458,0.15503 0.56844,0.25012 0.91364,0.28526 z"
       id="path319" />
  </g>
</svg>
