<?xml version="1.0" encoding="UTF-8" standalone="no"?>
<!-- Created with Inkscape (http://www.inkscape.org/) -->

<svg
   width="3.9439499mm"
   height="6.97015mm"
   viewBox="0 0 3.9439499 6.97015"
   version="1.1"
   id="svg1"
   inkscape:version="1.4 (86a8ad7, 2024-10-11)"
   sodipodi:docname="chart.svg"
   xmlns:inkscape="http://www.inkscape.org/namespaces/inkscape"
   xmlns:sodipodi="http://sodipodi.sourceforge.net/DTD/sodipodi-0.dtd"
   xmlns="http://www.w3.org/2000/svg"
   xmlns:svg="http://www.w3.org/2000/svg">
  <sodipodi:namedview
     id="namedview1"
     pagecolor="#ffffff"
     bordercolor="#000000"
     borderopacity="0.25"
     inkscape:showpageshadow="2"
     inkscape:pageopacity="0.0"
     inkscape:pagecheckerboard="0"
     inkscape:deskcolor="#d1d1d1"
     inkscape:document-units="mm"
     inkscape:zoom="4.1071317"
     inkscape:cx="9.6174174"
     inkscape:cy="4.0174022"
     inkscape:window-width="1920"
     inkscape:window-height="1017"
     inkscape:window-x="-8"
     inkscape:window-y="-8"
     inkscape:window-maximized="1"
     inkscape:current-layer="layer1" />
  <defs
     id="defs1" />
  <g
     inkscape:label="Livello 1"
     inkscape:groupmode="layer"
     id="layer1"
     transform="translate(-183.62088,-159.27915)">
    <path
       style="fill:#000000;fill-opacity:1;fill-rule:nonzero;stroke:none;stroke-width:0.352778"
       d="m 187.56478,163.40089 c 0,0.89917 -0.23151,1.59887 -0.69453,2.10013 -0.46096,0.4992 -1.13172,0.74828 -2.01332,0.74828 -0.29559,0 -0.5519,-0.0909 -0.76894,-0.27285 -0.24598,-0.19534 -0.36794,-0.43409 -0.36794,-0.71521 0,-0.11265 0.031,-0.20877 0.0951,-0.28938 0.063,-0.0796 0.14883,-0.11989 0.25631,-0.11989 0.24185,0 0.3638,0.10645 0.3638,0.31833 0,0.13022 -0.0351,0.23357 -0.10335,0.31005 -0.0661,0.0775 -0.16536,0.10542 -0.29766,0.0827 0.10129,0.12195 0.23255,0.2253 0.39275,0.31005 0.19843,0.11576 0.35346,0.17364 0.46715,0.17364 0.63665,0 1.12551,-0.24391 1.46761,-0.73174 0.29456,-0.41858 0.44235,-0.96429 0.44235,-1.63711 0,-0.32453 -0.0372,-0.64182 -0.11162,-0.95085 -0.0724,-0.31109 -0.17983,-0.5674 -0.32246,-0.76894 -0.33693,-0.47129 -0.81855,-0.70694 -1.44694,-0.70694 -0.15503,0 -0.26458,0.0103 -0.33073,0.0289 0,0.10542 -0.004,0.22738 -0.0124,0.36794 -0.008,0.13849 -0.0227,0.30386 -0.0413,0.49609 -0.0806,0.36174 -0.25115,0.54157 -0.51263,0.54157 -0.27079,0 -0.40515,-0.19947 -0.40515,-0.59945 0,-0.17363 0.0847,-0.36173 0.25632,-0.56637 0.14883,-0.17363 0.31936,-0.30179 0.51263,-0.38447 0.005,-0.28629 0.0176,-0.51057 0.0372,-0.67386 0.0217,-0.16227 0.0537,-0.3111 0.0951,-0.44649 0.0713,-0.24804 0.17467,-0.43201 0.31006,-0.55397 0.13436,-0.12092 0.31109,-0.1819 0.52916,-0.1819 0.26665,0 0.49196,0.0413 0.67387,0.12402 0.24804,0.10749 0.37207,0.28113 0.37207,0.5209 0,0.0775 -0.0207,0.1571 -0.062,0.23978 -0.0413,0.0941 -0.10335,0.14056 -0.18603,0.14056 -0.0827,0 -0.16537,-0.0724 -0.24805,-0.21911 l -0.20257,-0.3886 c -0.0941,-0.13746 -0.20981,-0.20671 -0.34727,-0.20671 -0.19327,0 -0.37517,0.11576 -0.5457,0.34727 -0.10749,0.15192 -0.1726,0.32246 -0.1943,0.51262 -0.0145,0.10749 -0.0207,0.29663 -0.0207,0.56638 v 0.16123 c 0.15916,-0.0351 0.3576,-0.0537 0.59531,-0.0537 0.73587,0 1.31258,0.21497 1.7322,0.64492 0.42374,0.41961 0.63665,0.99632 0.63665,1.73219 z m -3.18327,-1.69499 v -0.33072 c -0.25941,0.1602 -0.44235,0.3793 -0.54984,0.65732 0.0186,0.30076 0.0879,0.45062 0.20671,0.45062 0.12092,0 0.21187,-0.10542 0.27285,-0.31833 0.0465,-0.14262 0.0703,-0.29559 0.0703,-0.45889 z"
       id="path308" />
  </g>
</svg>
